PathFileType	4	(X/Y/Z)	/Users/niels/Desktop/University/Third Semester/Perception and Action/Exam/Gymnastics Motion Tracking/Code for Gym Tracking/Analyzed Data/Webcam_Backflip/id3_1_baseline_Sports2D/id3_1_baseline_Sports2D_px_person00.trc
DataRate	CameraRate	NumFrames	NumMarkers	Units	OrigDataRate	OrigDataStartFrame	OrigNumFrames
29.80392156862745	29.80392156862745	9	22	m	29.80392156862745	133	153
Frame#	Time	Hip			RHip			RKnee			RAnkle			RBigToe			RSmallToe			RHeel			LHip			LKnee			LAnkle			LBigToe			LSmallToe			LHeel			Neck			Head			Nose			RShoulder			RElbow			RWrist			LShoulder			LElbow			LWrist		
		X1	Y1	Z1	X2	Y2	Z2	X3	Y3	Z3	X4	Y4	Z4	X5	Y5	Z5	X6	Y6	Z6	X7	Y7	Z7	X8	Y8	Z8	X9	Y9	Z9	X10	Y10	Z10	X11	Y11	Z11	X12	Y12	Z12	X13	Y13	Z13	X14	Y14	Z14	X15	Y15	Z15	X16	Y16	Z16	X17	Y17	Z17	X18	Y18	Z18	X19	Y19	Z19	X20	Y20	Z20	X21	Y21	Z21	X22	Y22	Z22
133	4.4625	0.9911562761969241	-0.5704300632224665	0.0	0.9936718342511148	-0.5693247077184993	0.0	1.0405921242807106	-0.6735120982047704	0.0	1.0054489463327598	-0.7844151417083176	0.0	1.0534507842673249	-0.8043228950082941	0.0	1.0431015504499734	-0.8076903019439929	0.0	0.991286750443387	-0.8011449373935259	0.0	0.9936259283373833	-0.5712380885341479	0.0	1.0047636755565204	-0.6756279361417039	0.0	0.9906631055226564	-0.7869745437417106	0.0	1.0419336379114947	-0.8056010801816506	0.0	1.0331839997234151	-0.8015979384938544	0.0	0.9820058097085598	-0.8024305310622666	0.0	1.0538528606915902	-0.43302434871900086	0.0	1.125006362591313	-0.41161393857363276	0.0	1.093542040112389	-0.4462390785573312	0.0	1.0298635363046627	-0.43569819813763205	0.0	0.985113421260261	-0.49935700141364536	0.0	1.002874466535955	-0.5684864861923941	0.0	1.0450496207630198	-0.4457252292101187	0.0	1.0241054005478207	-0.5235172393331843	0.0	1.043442061156699	-0.581024168143804	0.0
134	4.496052631578947	0.9902391698408364	-0.5697792637330096	0.0	0.9924973557379615	-0.568507857598343	0.0	1.041331838543555	-0.6720010763806733	0.0	1.0029595779957163	-0.7808834080912246	0.0	1.0503010812986335	-0.8024959045224732	0.0	1.0402445622162537	-0.8057155162215303	0.0	0.9883491810598695	-0.7981974673538907	0.0	0.9920012766995683	-0.5703807722172115	0.0	1.0045023571656104	-0.6743193693778358	0.0	0.9899816571538382	-0.7843830619352714	0.0	1.03987239562845	-0.8041004249298415	0.0	1.031191366246235	-0.8009301642369095	0.0	0.9808216534085283	-0.8004969483789866	0.0	1.0524667991900227	-0.4331560829790491	0.0	1.1237763610517646	-0.4119822423660104	0.0	1.0921797262356454	-0.44627477974751645	0.0	1.028410948012899	-0.43519340049307076	0.0	0.985238356719643	-0.5000912560825251	0.0	1.0027051590748115	-0.5692545415317738	0.0	1.043540621147623	-0.4459798012089112	0.0	1.0242816235367134	-0.5244824733065092	0.0	1.0419868064285185	-0.5825610913590205	0.0
135	4.529605263157895	0.9897229764146543	-0.5687859480801879	0.0	0.9917028090927273	-0.5673455836591057	0.0	1.0401060952748686	-0.6708508149832593	0.0	0.9998339030435378	-0.7783592604825748	0.0	1.0460970894718964	-0.8011203780118259	0.0	1.0362317655357116	-0.8042570724575986	0.0	0.9848572057059084	-0.7959948877766462	0.0	0.9910310852125493	-0.5692032831369439	0.0	1.0047616851969483	-0.6729846771532945	0.0	0.9891206649553709	-0.7818763022246217	0.0	1.0372534807814486	-0.8026225134268071	0.0	1.028823004735639	-0.800114643960891	0.0	0.9791183051290863	-0.7985290377402963	0.0	1.0508482395365915	-0.4325716959000707	0.0	1.1222424146779264	-0.41128554310441134	0.0	1.0907073288985962	-0.4453541990074137	0.0	1.0269738924248615	-0.4341982144934904	0.0	0.9862999444337367	-0.5007858322494831	0.0	1.004088525401059	-0.5701508464722518	0.0	1.0417448800717077	-0.44556254090442066	0.0	1.0240327587861013	-0.5244021728354173	0.0	1.0397845408655213	-0.5829715833552044	0.0
136	4.563157894736842	0.9893352470789949	-0.5675837170867462	0.0	0.9910128214109825	-0.565992947704816	0.0	1.0369062549564882	-0.670119836299348	0.0	0.9964097150278755	-0.7771966844394617	0.0	1.0415377111849107	-0.8003464207573087	0.0	1.031653156443212	-0.8034356217997533	0.0	0.9812928335199067	-0.7947693302163723	0.0	0.9907128079434275	-0.5678599531173528	0.0	1.0053977926245339	-0.671788449233866	0.0	0.988309290681804	-0.7799084744564557	0.0	1.0348632341317676	-0.8013129323003413	0.0	1.0267287037384074	-0.799264979401286	0.0	0.9772383202020166	-0.7968550633626668	0.0	1.048932299857619	-0.4312506566278546	0.0	1.1203724859733717	-0.40951111011506997	0.0	1.0890378662560656	-0.4434997558292504	0.0	1.0254758413223657	-0.43288591862900366	0.0	0.9882410605492395	-0.5014668009649764	0.0	1.0070138896129512	-0.5711345269816815	0.0	1.0396351201845024	-0.4444029289050459	0.0	1.0230830480283146	-0.523205438231362	0.0	1.0371210723402218	-0.5821341972027201	0.0
137	4.59671052631579	0.9888022473366238	-0.5662663481981011	0.0	0.9901243828625591	-0.5645681356405996	0.0	1.0320269645692581	-0.669720058484018	0.0	0.9931404913556894	-0.7773932248160645	0.0	1.0373531482545786	-0.8001630174249019	0.0	1.0272563147786222	-0.8031952016207183	0.0	0.9781984646171338	-0.7945721438461397	0.0	0.99089923293685	-0.5664002616017579	0.0	1.006361596182055	-0.6708028521045114	0.0	0.987772626388296	-0.7786896331726718	0.0	1.033319932639238	-0.800223983368817	0.0	1.0254423779619894	-0.7984435135772577	0.0	0.9756082232290546	-0.7956767639169191	0.0	1.046700240145626	-0.42927380337428445	0.0	1.1182008693388423	-0.4068491430356316	0.0	1.0870626760648174	-0.44091895716831225	0.0	1.0238248584011802	-0.43146349106678583	0.0	0.9909597392235182	-0.5021820751865556	0.0	1.0114479381401853	-0.5721475983230495	0.0	1.037197732409253	-0.4424621152697543	0.0	1.021241193143016	-0.5209515372064504	0.0	1.0342972749482964	-0.5801156191356491	0.0
138	4.630263157894737	0.9879542389779061	-0.5648968564596835	0.0	0.9888601260858899	-0.5631372403126648	0.0	1.0260340883586598	-0.6695208832564155	0.0	0.9903752247444304	-0.7786129012789613	0.0	1.0340118599520272	-0.8003939745886101	0.0	1.0236283675617057	-0.8033486751443984	0.0	0.9758888439344774	-0.795273070716354	0.0	0.9912230296039012	-0.5648076969018985	0.0	1.0074835488678808	-0.6700577621981619	0.0	0.9875948165536824	-0.7782088540540818	0.0	1.0327478052685402	-0.799326736780953	0.0	1.0250966135567687	-0.797685490207264	0.0	0.9745566636744699	-0.7950805724465213	0.0	1.0442379819207441	-0.42685198611202746	0.0	1.1157872220761786	-0.40360539106854115	0.0	1.0847728996538542	-0.43791124473964116	0.0	1.0220234093601097	-0.4301347572976292	0.0	0.9943593596470611	-0.5029763253849957	0.0	1.0172882603879334	-0.5731150096137672	0.0	1.034424341797364	-0.4397843158747111	0.0	1.0185166480535652	-0.5178873804382715	0.0	1.0316620584811806	-0.5771767888340227	0.0
139	4.663815789473684	0.9867797513160568	-0.5635833700914114	0.0	0.9872835045899414	-0.5617841407445895	0.0	1.0196882130257063	-0.6694536989633106	0.0	0.9882442976651555	-0.7803810743416639	0.0	1.0316436836551326	-0.8007872762244546	0.0	1.0210081511005369	-0.8036768764978698	0.0	0.974359030847023	-0.7965881783349759	0.0	0.991229903586451	-0.5631478897688326	0.0	1.0083412844101498	-0.6695773894076488	0.0	0.9876649206943553	-0.7783248049147954	0.0	1.03276847950823	-0.7985773447476613	0.0	1.0253816498040282	-0.7970243412558452	0.0	0.9741785725606336	-0.7950229896636631	0.0	1.0417135844666772	-0.42430567318004203	0.0	1.113171366533731	-0.40012977651589726	0.0	1.0823086499988261	-0.43480100432674923	0.0	1.0201879121554116	-0.4290642546868301	0.0	0.998346221345444	-0.5038821386661254	0.0	1.0242480321965086	-0.5739008733504704	0.0	1.0313571333257419	-0.436615040143401	0.0	1.0153203610085069	-0.5145471042324287	0.0	1.029786342413842	-0.5738428615668704	0.0
140	4.697368421052632	0.9854017513181803	-0.562489130940257	0.0	0.9856351591416136	-0.5606638158927882	0.0	1.0137391051774913	-0.6695311917118653	0.0	0.9866841527431081	-0.7823093907757316	0.0	1.0301461110149919	-0.8011385658370659	0.0	1.0193185788132968	-0.8040186902725049	0.0	0.9734216365856061	-0.798171922222696	0.0	0.9906804410314706	-0.5616354482602629	0.0	1.0084536951396974	-0.6693562997578875	0.0	0.9877846442988102	-0.778837370147325	0.0	1.0328688551697234	-0.7979832010095561	0.0	1.0257963562104118	-0.7964901377213895	0.0	0.974355882778243	-0.795305763596832	0.0	1.039270888596927	-0.4219769746751264	0.0	1.1103463854922517	-0.3967403361706019	0.0	1.0798623925124269	-0.4318955367050392	0.0	1.0184463444736944	-0.42835785406456917	0.0	1.002759543456173	-0.5048859385062985	0.0	1.031843468690113	-0.5743155181076758	0.0	1.028150575356558	-0.43344156702441156	0.0	1.0126303618104593	-0.5117006219925062	0.0	1.0295245278733711	-0.5708907158037413	0.0
141	4.730921052631579	0.9839982401340509	-0.5617778342097229	0.0	0.9841421283049541	-0.559960031428299	0.0	1.0086647944752944	-0.6697775765884473	0.0	0.9855393658935153	-0.7842020043667468	0.0	1.0292792120666294	-0.8013856592143059	0.0	1.018272873852988	-0.8043099075040155	0.0	0.9728682142876081	-0.7997600681887818	0.0	0.9896800434939841	-0.5605446987775611	0.0	1.0076753896721922	-0.6693303293380907	0.0	0.9878480524285604	-0.7795378611620378	0.0	1.0327713447706626	-0.7975840307932645	0.0	1.0259911784982068	-0.7960858626856068	0.0	0.9749173797356391	-0.7956570554868163	0.0	1.0369396480015511	-0.42012808866095486	0.0	1.1072712309895423	-0.3936660513541601	0.0	1.0775268508596065	-0.4294142481902484	0.0	1.0168431093580934	-0.42806135169646936	0.0	1.0073442078779522	-0.5059137414011678	0.0	1.0395385096267515	-0.5742066322985773	0.0	1.0249930195799288	-0.43079449691211597	0.0	1.0116308404497447	-0.5100079668818926	0.0	1.0316229848096512	-0.5690161847439352	0.0
